<svg width="164" height="31" viewBox="0 0 164 31" fill="none" xmlns="http://www.w3.org/2000/svg">
<path d="M0.00268555 19C0.00489966 18.3997 0.18715 17.8139 0.525869 17.3183C0.864589 16.8227 1.3442 16.4401 1.90269 16.22L0.0326862 9.22001C-0.00637845 9.07093 -0.0104588 8.91484 0.0207653 8.76392C0.0519894 8.61301 0.117671 8.47135 0.212685 8.35001C0.309817 8.23632 0.431213 8.14585 0.567932 8.08528C0.704652 8.02471 0.853215 7.99557 1.00269 8.00001H14.7027L15.0327 6.74001C15.0901 6.52692 15.2163 6.33879 15.3918 6.20494C15.5672 6.0711 15.782 5.99904 16.0027 6.00001H18.0027V8.00001H16.7727L14.2927 17.26C14.2341 17.4782 14.1033 17.6701 13.9218 17.8044C13.7402 17.9388 13.5184 18.0077 13.2927 18H3.00269C2.73747 18 2.48311 18.1054 2.29558 18.2929C2.10804 18.4804 2.00269 18.7348 2.00269 19C2.00269 19.2652 2.10804 19.5196 2.29558 19.7071C2.48311 19.8947 2.73747 20 3.00269 20H16.0027C16.2679 20 16.5223 20.1054 16.7098 20.2929C16.8973 20.4804 17.0027 20.7348 17.0027 21C17.0027 21.2652 16.8973 21.5196 16.7098 21.7071C16.5223 21.8947 16.2679 22 16.0027 22H14.8227C14.9872 22.4531 15.04 22.9392 14.9768 23.4171C14.9135 23.895 14.736 24.3506 14.4594 24.7454C14.1827 25.1401 13.815 25.4624 13.3873 25.6849C12.9597 25.9074 12.4847 26.0235 12.0027 26.0235C11.5206 26.0235 11.0457 25.9074 10.618 25.6849C10.1904 25.4624 9.82268 25.1401 9.546 24.7454C9.26933 24.3506 9.09186 23.895 9.02862 23.4171C8.96537 22.9392 9.01822 22.4531 9.18269 22H6.82269C6.9724 22.4126 7.02975 22.853 6.99069 23.2902C6.95164 23.7274 6.81712 24.1507 6.59664 24.5302C6.37616 24.9098 6.07508 25.2363 5.71465 25.4868C5.35421 25.7373 4.9432 25.9056 4.51061 25.98C4.07803 26.0543 3.6344 26.0328 3.21102 25.917C2.78765 25.8012 2.39485 25.5939 2.06033 25.3097C1.72581 25.0255 1.45772 24.6714 1.27497 24.2723C1.09223 23.8732 0.99928 23.4389 1.00269 23C1.00454 22.4834 1.14251 21.9764 1.40269 21.53C0.97507 21.2604 0.622515 20.8871 0.37776 20.4448C0.133005 20.0025 0.00398669 19.5055 0.00268555 19V19ZM3.91269 16H12.5027L14.1627 10H2.30268L3.91269 16ZM12.0027 24C12.2005 24 12.3938 23.9414 12.5583 23.8315C12.7227 23.7216 12.8509 23.5654 12.9266 23.3827C13.0023 23.2 13.0221 22.9989 12.9835 22.8049C12.9449 22.6109 12.8496 22.4328 12.7098 22.2929C12.5699 22.153 12.3918 22.0578 12.1978 22.0192C12.0038 21.9806 11.8027 22.0004 11.62 22.0761C11.4373 22.1518 11.2811 22.28 11.1712 22.4444C11.0613 22.6089 11.0027 22.8022 11.0027 23C11.0027 23.2652 11.108 23.5196 11.2956 23.7071C11.4831 23.8947 11.7375 24 12.0027 24ZM4.00269 24C4.20047 24 4.39381 23.9414 4.55826 23.8315C4.72271 23.7216 4.85088 23.5654 4.92657 23.3827C5.00225 23.2 5.02206 22.9989 4.98347 22.8049C4.94489 22.6109 4.84965 22.4328 4.70979 22.2929C4.56994 22.153 4.39176 22.0578 4.19778 22.0192C4.0038 21.9806 3.80273 22.0004 3.62 22.0761C3.43728 22.1518 3.2811 22.28 3.17122 22.4444C3.06133 22.6089 3.00269 22.8022 3.00269 23C3.00269 23.2652 3.10804 23.5196 3.29558 23.7071C3.48311 23.8947 3.73747 24 4.00269 24Z" fill="#D1423D"/>
<path d="M25.904 24.048C25.904 23.92 25.928 23.768 25.976 23.592C26.008 23.416 26.048 23.272 26.096 23.16H27.824C28.064 22.44 28.28 21.712 28.472 20.976C28.664 20.24 28.824 19.568 28.952 18.96L30.392 12.24C30.52 11.632 30.64 10.992 30.752 10.32C30.864 9.632 30.96 8.872 31.04 8.04H29.312C29.312 7.912 29.328 7.76 29.36 7.584C29.408 7.408 29.456 7.264 29.504 7.152C30.048 7.168 30.592 7.184 31.136 7.2C31.68 7.2 32.224 7.2 32.768 7.2C33.328 7.2 33.88 7.2 34.424 7.2C34.968 7.184 35.52 7.168 36.08 7.152C36.08 7.264 36.056 7.408 36.008 7.584C35.976 7.76 35.936 7.912 35.888 8.04H34.16C33.92 8.776 33.712 9.464 33.536 10.104C33.376 10.728 33.208 11.44 33.032 12.24L31.592 18.96C31.48 19.552 31.36 20.2 31.232 20.904C31.12 21.592 31.024 22.344 30.944 23.16H34.136C35.368 23.16 36.288 22.824 36.896 22.152C37.52 21.48 38.008 20.456 38.36 19.08C38.616 19.032 38.872 19.032 39.128 19.08L38.072 24H29.192C28.648 24 28.104 24 27.56 24C27.016 24 26.464 24.016 25.904 24.048ZM47.3636 14.04C46.6916 14.04 46.0836 14.256 45.5396 14.688C45.0116 15.104 44.5636 15.648 44.1956 16.32C43.8276 16.976 43.5476 17.688 43.3556 18.456C43.1636 19.208 43.0676 19.92 43.0676 20.592C43.0676 21.504 43.2116 22.2 43.4996 22.68C43.7876 23.16 44.2356 23.4 44.8436 23.4V24.36C43.5316 24.36 42.5156 23.992 41.7956 23.256C41.0916 22.504 40.7396 21.512 40.7396 20.28C40.7396 19.336 40.8996 18.432 41.2196 17.568C41.5556 16.704 42.0196 15.936 42.6116 15.264C43.2196 14.592 43.9236 14.064 44.7236 13.68C45.5396 13.28 46.4196 13.08 47.3636 13.08V14.04ZM44.8436 23.4C45.5156 23.4 46.1156 23.192 46.6436 22.776C47.1876 22.344 47.6436 21.8 48.0116 21.144C48.3796 20.472 48.6596 19.76 48.8516 19.008C49.0436 18.24 49.1396 17.52 49.1396 16.848C49.1396 15.936 48.9956 15.24 48.7076 14.76C48.4196 14.28 47.9716 14.04 47.3636 14.04V13.08C48.6756 13.08 49.6836 13.456 50.3876 14.208C51.1076 14.944 51.4676 15.928 51.4676 17.16C51.4676 18.104 51.2996 19.008 50.9636 19.872C50.6436 20.736 50.1796 21.504 49.5716 22.176C48.9796 22.848 48.2756 23.384 47.4596 23.784C46.6596 24.168 45.7876 24.36 44.8436 24.36V23.4ZM53.7112 14.4C53.7272 14.256 53.7512 14.096 53.7832 13.92C53.8152 13.744 53.8632 13.584 53.9272 13.44H60.5272C60.5112 13.552 60.4872 13.704 60.4552 13.896C60.4232 14.088 60.3752 14.256 60.3112 14.4H53.7112ZM58.7752 20.976C58.9192 21.04 59.0472 21.112 59.1592 21.192C59.2712 21.256 59.3832 21.344 59.4952 21.456C58.9512 22.416 58.3272 23.144 57.6232 23.64C56.9352 24.12 56.2152 24.36 55.4632 24.36C54.6792 24.36 54.1672 24.12 53.9272 23.64C53.7032 23.144 53.6712 22.528 53.8312 21.792L54.9352 16.56C55.0152 16.208 55.1112 15.76 55.2232 15.216C55.3352 14.672 55.4392 14.104 55.5352 13.512C55.6312 12.92 55.6952 12.376 55.7272 11.88C56.0312 11.784 56.3112 11.648 56.5672 11.472C56.8232 11.296 57.0552 11.096 57.2632 10.872C57.4872 10.648 57.6712 10.424 57.8152 10.2C58.0712 10.152 58.3272 10.152 58.5832 10.2C58.2632 11.416 57.9832 12.528 57.7432 13.536C57.5192 14.544 57.2952 15.568 57.0712 16.608L55.9912 21.792C55.9272 22.128 55.9432 22.4 56.0392 22.608C56.1352 22.816 56.2952 22.92 56.5192 22.92C56.6952 22.92 56.9672 22.8 57.3352 22.56C57.7192 22.32 58.1992 21.792 58.7752 20.976ZM64.028 24.36C63.196 24.36 62.596 24.096 62.228 23.568C61.876 23.04 61.828 22.192 62.084 21.024L62.804 17.76C62.916 17.28 63.004 16.792 63.068 16.296C63.148 15.784 63.22 15.128 63.284 14.328H61.916C61.916 14.2 61.932 14.048 61.964 13.872C62.012 13.696 62.06 13.552 62.108 13.44C62.732 13.44 63.396 13.424 64.1 13.392C64.804 13.344 65.54 13.256 66.308 13.128C66.132 13.544 65.956 14.04 65.78 14.616C65.604 15.192 65.444 15.76 65.3 16.32C65.172 16.88 65.06 17.36 64.964 17.76L64.244 20.976C64.132 21.536 64.14 21.984 64.268 22.32C64.396 22.64 64.676 22.8 65.108 22.8C65.572 22.8 66.028 22.624 66.476 22.272C66.94 21.904 67.38 21.408 67.796 20.784C68.212 20.144 68.588 19.408 68.924 18.576C69.26 17.728 69.532 16.832 69.74 15.888H70.364C69.9 18.016 69.324 19.696 68.636 20.928C67.964 22.16 67.228 23.04 66.428 23.568C65.644 24.096 64.844 24.36 64.028 24.36ZM70.004 24.36C69.316 24.36 68.844 24.12 68.588 23.64C68.348 23.16 68.308 22.544 68.468 21.792L69.74 15.888C69.82 15.472 69.892 15.064 69.956 14.664C70.036 14.248 70.084 13.84 70.1 13.44C70.516 13.44 70.908 13.432 71.276 13.416C71.66 13.4 72.06 13.368 72.476 13.32C72.364 13.784 72.26 14.224 72.164 14.64C72.068 15.056 71.98 15.472 71.9 15.888L70.628 21.792C70.548 22.16 70.524 22.464 70.556 22.704C70.604 22.928 70.74 23.04 70.964 23.04C71.188 23.04 71.436 22.92 71.708 22.68C71.996 22.44 72.324 22.032 72.692 21.456C72.836 21.52 72.964 21.592 73.076 21.672C73.188 21.736 73.3 21.824 73.412 21.936C73.028 22.656 72.532 23.24 71.924 23.688C71.316 24.136 70.676 24.36 70.004 24.36ZM78.1291 24.36C77.5371 24.36 76.9371 24.296 76.3291 24.168C75.7371 24.04 75.1051 23.8 74.4331 23.448L75.1291 20.328C75.3851 20.28 75.6411 20.28 75.8971 20.328C75.8971 21.288 76.0731 22.04 76.4251 22.584C76.7931 23.128 77.4091 23.4 78.2731 23.4C78.9451 23.4 79.4891 23.232 79.9051 22.896C80.3371 22.56 80.5531 22.12 80.5531 21.576C80.5531 21.144 80.3931 20.8 80.0731 20.544C79.7531 20.272 79.3531 20.032 78.8731 19.824C78.4091 19.6 77.9371 19.36 77.4571 19.104C76.9931 18.832 76.6011 18.488 76.2811 18.072C75.9611 17.656 75.8011 17.104 75.8011 16.416C75.8011 15.696 75.9851 15.088 76.3531 14.592C76.7211 14.096 77.2171 13.72 77.8411 13.464C78.4811 13.208 79.1851 13.08 79.9531 13.08C80.5771 13.08 81.1691 13.16 81.7291 13.32C82.3051 13.48 82.8171 13.704 83.2651 13.992L82.6171 16.8C82.3611 16.848 82.1051 16.848 81.8491 16.8C81.8651 15.856 81.6891 15.16 81.3211 14.712C80.9531 14.264 80.3771 14.04 79.5931 14.04C78.9531 14.04 78.4811 14.2 78.1771 14.52C77.8891 14.84 77.7451 15.192 77.7451 15.576C77.7451 16.024 77.9051 16.392 78.2251 16.68C78.5611 16.968 78.9691 17.232 79.4491 17.472C79.9451 17.712 80.4331 17.968 80.9131 18.24C81.3931 18.512 81.7931 18.856 82.1131 19.272C82.4491 19.672 82.6171 20.2 82.6171 20.856C82.6171 21.592 82.4011 22.224 81.9691 22.752C81.5531 23.28 81.0011 23.68 80.3131 23.952C79.6411 24.224 78.9131 24.36 78.1291 24.36ZM100.571 24.048C100.571 23.92 100.587 23.768 100.619 23.592C100.667 23.416 100.715 23.272 100.763 23.16H102.491C102.731 22.408 102.939 21.704 103.115 21.048C103.291 20.376 103.459 19.68 103.619 18.96L105.059 12.24C105.187 11.632 105.307 10.992 105.419 10.32C105.531 9.632 105.627 8.872 105.707 8.04H103.979C103.979 7.912 103.995 7.76 104.027 7.584C104.075 7.408 104.123 7.264 104.171 7.152C104.715 7.168 105.259 7.184 105.803 7.2C106.347 7.2 106.891 7.2 107.435 7.2C107.995 7.2 108.547 7.2 109.091 7.2C109.635 7.184 110.187 7.168 110.747 7.152C110.747 7.264 110.723 7.408 110.675 7.584C110.643 7.76 110.603 7.912 110.555 8.04H108.827C108.587 8.776 108.379 9.464 108.203 10.104C108.043 10.728 107.875 11.44 107.699 12.24L106.259 18.96C106.115 19.616 105.987 20.288 105.875 20.976C105.779 21.664 105.691 22.392 105.611 23.16H107.339C107.339 23.288 107.315 23.44 107.267 23.616C107.235 23.776 107.195 23.92 107.147 24.048C106.603 24.016 106.051 24 105.491 24C104.947 24 104.403 24 103.859 24C103.315 24 102.771 24 102.227 24C101.683 24 101.131 24.016 100.571 24.048ZM89.7712 24.048C89.7712 23.92 89.7952 23.768 89.8432 23.592C89.8752 23.416 89.9152 23.272 89.9632 23.16H91.6912C91.9312 22.44 92.1472 21.712 92.3392 20.976C92.5312 20.24 92.6912 19.568 92.8192 18.96L94.2592 12.24C94.3872 11.632 94.5072 10.992 94.6192 10.32C94.7312 9.632 94.8272 8.872 94.9072 8.04H93.1792C93.1792 7.912 93.1952 7.76 93.2272 7.584C93.2752 7.408 93.3232 7.264 93.3712 7.152C93.9152 7.168 94.4592 7.184 95.0032 7.2C95.5472 7.2 96.0912 7.2 96.6352 7.2C97.1952 7.2 97.7472 7.2 98.2912 7.2C98.8352 7.184 99.3872 7.168 99.9472 7.152C99.9472 7.264 99.9232 7.408 99.8752 7.584C99.8432 7.76 99.8032 7.912 99.7552 8.04H98.0272C97.7872 8.776 97.5792 9.464 97.4032 10.104C97.2432 10.728 97.0752 11.44 96.8992 12.24L95.4592 18.96C95.3472 19.552 95.2272 20.2 95.0992 20.904C94.9872 21.592 94.8912 22.344 94.8112 23.16H96.5392C96.5392 23.272 96.5152 23.416 96.4672 23.592C96.4352 23.768 96.3952 23.92 96.3472 24.048C95.8032 24.016 95.2592 24 94.7152 24C94.1712 24 93.6192 24 93.0592 24C92.5152 24 91.9712 24 91.4272 24C90.8832 24 90.3312 24.016 89.7712 24.048ZM94.4512 15.6L94.6432 14.64H105.299L105.107 15.6H94.4512ZM118.21 24.36C117.522 24.36 117.05 24.12 116.794 23.64C116.538 23.16 116.49 22.544 116.65 21.792L117.058 19.872L117.898 18.216L118.138 15L120.106 13.44C120.362 13.392 120.618 13.392 120.874 13.44C120.65 14.08 120.426 14.808 120.202 15.624C119.994 16.44 119.826 17.152 119.698 17.76L118.834 21.792C118.77 22.144 118.746 22.44 118.762 22.68C118.794 22.92 118.93 23.04 119.17 23.04C119.394 23.04 119.642 22.92 119.914 22.68C120.202 22.44 120.53 22.032 120.898 21.456C121.042 21.52 121.17 21.592 121.282 21.672C121.394 21.736 121.506 21.824 121.618 21.936C121.234 22.656 120.738 23.24 120.13 23.688C119.522 24.136 118.882 24.36 118.21 24.36ZM112.642 24.36C111.714 24.36 110.994 24.04 110.482 23.4C109.986 22.76 109.738 21.848 109.738 20.664C109.738 19.768 109.89 18.872 110.194 17.976C110.498 17.08 110.93 16.264 111.49 15.528C112.05 14.792 112.73 14.2 113.53 13.752C114.33 13.304 115.234 13.08 116.242 13.08C117.266 13.08 118.106 13.32 118.762 13.8C119.418 14.28 119.802 14.92 119.914 15.72L118.642 16.488C118.642 17.384 118.482 18.296 118.162 19.224C117.858 20.152 117.426 21.008 116.866 21.792C116.322 22.56 115.69 23.184 114.97 23.664C114.25 24.128 113.474 24.36 112.642 24.36ZM113.698 22.92C114.274 22.92 114.802 22.712 115.282 22.296C115.778 21.88 116.21 21.344 116.578 20.688C116.946 20.016 117.234 19.304 117.442 18.552C117.65 17.8 117.754 17.088 117.754 16.416C117.754 15.696 117.634 15.12 117.394 14.688C117.17 14.256 116.786 14.04 116.242 14.04C115.698 14.04 115.17 14.256 114.658 14.688C114.162 15.104 113.714 15.648 113.314 16.32C112.93 16.992 112.618 17.712 112.378 18.48C112.154 19.232 112.042 19.936 112.042 20.592C112.042 21.376 112.186 21.96 112.474 22.344C112.778 22.728 113.186 22.92 113.698 22.92ZM132.966 13.44C133.094 14.736 133.046 16.032 132.822 17.328C132.598 18.624 132.206 19.8 131.646 20.856C131.102 21.912 130.39 22.76 129.51 23.4C128.646 24.04 127.638 24.36 126.486 24.36C125.942 24.36 125.382 24.256 124.806 24.048C124.23 23.84 123.71 23.472 123.246 22.944L124.35 17.76C124.462 17.232 124.558 16.68 124.638 16.104C124.734 15.512 124.798 14.92 124.83 14.328H123.462C123.462 14.216 123.478 14.072 123.51 13.896C123.558 13.704 123.606 13.552 123.654 13.44C124.262 13.44 124.926 13.424 125.646 13.392C126.366 13.344 127.102 13.256 127.854 13.128C127.678 13.56 127.502 14.064 127.326 14.64C127.15 15.216 126.99 15.784 126.846 16.344C126.718 16.888 126.606 17.36 126.51 17.76L125.838 20.904C125.678 21.608 125.702 22.16 125.91 22.56C126.118 22.96 126.51 23.16 127.086 23.16C127.934 23.16 128.662 22.928 129.27 22.464C129.894 21.984 130.374 21.288 130.71 20.376C131.062 19.448 131.238 18.328 131.238 17.016C131.238 16.456 131.19 15.968 131.094 15.552C130.998 15.136 130.83 14.728 130.59 14.328H129.534C129.534 14.216 129.55 14.064 129.582 13.872C129.63 13.664 129.678 13.504 129.726 13.392C130.286 13.408 130.862 13.424 131.454 13.44C132.062 13.44 132.566 13.44 132.966 13.44ZM139.187 23.04C139.651 23.04 140.235 22.888 140.939 22.584C141.659 22.28 142.387 21.712 143.123 20.88C143.267 20.944 143.395 21.016 143.507 21.096C143.619 21.16 143.731 21.248 143.843 21.36C143.107 22.416 142.283 23.184 141.371 23.664C140.475 24.128 139.587 24.36 138.707 24.36C137.443 24.36 136.467 24 135.779 23.28C135.107 22.544 134.771 21.544 134.771 20.28C134.771 19.32 134.931 18.408 135.251 17.544C135.587 16.68 136.059 15.912 136.667 15.24C137.275 14.568 137.995 14.04 138.827 13.656C139.659 13.272 140.579 13.08 141.587 13.08C142.403 13.08 143.035 13.184 143.483 13.392C143.947 13.584 144.275 13.84 144.467 14.16C144.659 14.464 144.755 14.784 144.755 15.12C144.755 15.824 144.499 16.44 143.987 16.968C143.475 17.48 142.803 17.92 141.971 18.288C141.139 18.64 140.251 18.912 139.307 19.104C138.363 19.296 137.459 19.416 136.595 19.464L136.451 18.624C137.507 18.56 138.491 18.392 139.403 18.12C140.331 17.832 141.083 17.456 141.659 16.992C142.235 16.512 142.523 15.968 142.523 15.36C142.523 15.024 142.419 14.72 142.211 14.448C142.019 14.176 141.667 14.04 141.155 14.04C140.451 14.04 139.835 14.256 139.307 14.688C138.779 15.12 138.339 15.672 137.987 16.344C137.635 17.016 137.371 17.728 137.195 18.48C137.019 19.216 136.931 19.896 136.931 20.52C136.931 21.432 137.123 22.08 137.507 22.464C137.891 22.848 138.451 23.04 139.187 23.04ZM146.213 24.12C146.325 23.656 146.429 23.216 146.525 22.8C146.621 22.368 146.709 21.952 146.789 21.552L147.605 17.76C147.717 17.28 147.805 16.792 147.869 16.296C147.949 15.784 148.021 15.128 148.085 14.328H146.717C146.717 14.2 146.733 14.048 146.765 13.872C146.813 13.696 146.861 13.552 146.909 13.44C147.533 13.44 148.173 13.424 148.829 13.392C149.501 13.344 150.221 13.256 150.989 13.128C150.749 13.704 150.557 14.208 150.413 14.64C150.269 15.072 150.149 15.528 150.053 16.008C149.973 16.472 149.877 17.056 149.765 17.76L148.949 21.552C148.869 21.952 148.797 22.36 148.733 22.776C148.669 23.176 148.621 23.584 148.589 24C148.173 24 147.773 24.008 147.389 24.024C147.021 24.04 146.629 24.072 146.213 24.12ZM154.853 24.36C154.165 24.36 153.685 24.12 153.413 23.64C153.157 23.144 153.125 22.528 153.317 21.792L154.685 16.464C154.829 15.904 154.829 15.464 154.685 15.144C154.541 14.808 154.245 14.64 153.797 14.64C153.317 14.64 152.829 14.824 152.333 15.192C151.853 15.544 151.389 16.04 150.941 16.68C150.509 17.304 150.117 18.04 149.765 18.888C149.429 19.72 149.157 20.608 148.949 21.552H148.325C148.789 19.424 149.373 17.744 150.077 16.512C150.781 15.28 151.541 14.4 152.357 13.872C153.189 13.344 154.013 13.08 154.829 13.08C155.693 13.08 156.317 13.344 156.701 13.872C157.101 14.384 157.149 15.232 156.845 16.416L155.477 21.792C155.381 22.16 155.357 22.464 155.405 22.704C155.453 22.928 155.589 23.04 155.813 23.04C156.037 23.04 156.285 22.92 156.557 22.68C156.845 22.44 157.173 22.032 157.541 21.456C157.685 21.52 157.813 21.592 157.925 21.672C158.037 21.736 158.149 21.824 158.261 21.936C157.877 22.656 157.381 23.24 156.773 23.688C156.165 24.136 155.525 24.36 154.853 24.36Z" fill="black" fill-opacity="0.65"/>
</svg>
